<?xml version="1.0" standalone="no"?>
<!DOCTYPE svg PUBLIC "-//W3C//DTD SVG 20010904//EN"
 "http://www.w3.org/TR/2001/REC-SVG-20010904/DTD/svg10.dtd">
<svg version="1.0" xmlns="http://www.w3.org/2000/svg"
 width="32.000000pt" height="32.000000pt" viewBox="0 0 32.000000 32.000000"
 preserveAspectRatio="xMidYMid meet">
<metadata>
Created for CHIENLIN blog
</metadata>
<g transform="translate(0.000000,32.000000) scale(0.100000,-0.100000)"
fill="#000000" stroke="none">
<path d="M50 160 c0 -87 0 -90 25 -90 22 0 25 5 25 33 0 31 2 32 38 32 36 0 37
-1 40 -37 2 -21 8 -38 13 -38 6 0 9 40 9 100 0 88 -2 100 -17 100 -16 0 -18
-8 -18 -62 l0 -63 -37 -3 c-36 -3 -38 -1 -38 25 0 15 0 39 0 53 0 23 -4 25
-20 20 -19 -6 -20 -14 -20 -90z"/>
</g>
</svg>